<?xml version="1.0" encoding="iso-8859-1"?>
<!-- Uploaded to: SVG Repo, www.svgrepo.com, Generator: SVG Repo Mixer Tools -->
<!DOCTYPE svg PUBLIC "-//W3C//DTD SVG 1.1//EN" "http://www.w3.org/Graphics/SVG/1.1/DTD/svg11.dtd">
<svg fill="#000000" version="1.1" id="Capa_1" xmlns="http://www.w3.org/2000/svg" xmlns:xlink="http://www.w3.org/1999/xlink" 
	 width="800px" height="800px" viewBox="0 0 108.336 108.336"
	 xml:space="preserve">
<g>
	<path d="M54.168,0C24.3,0,0,24.3,0,54.168c0,29.869,24.3,54.168,54.168,54.168s54.168-24.299,54.168-54.168
		C108.336,24.3,84.036,0,54.168,0z M33.205,91.702c5.85,10.373,12.889,15.558,21.112,15.558c-14.606,0-27.108-5.185-37.5-15.558
		C6.423,81.329,1.227,68.816,1.227,54.168c0-14.607,5.197-27.107,15.59-37.502C27.209,6.274,39.711,1.077,54.317,1.077
		c-8.223,0-15.263,5.198-21.112,15.589c-5.852,10.395-8.777,22.895-8.777,37.502C24.428,68.816,27.353,81.329,33.205,91.702z"/>
</g>
</svg>